<?xml version="1.0" encoding="utf-8"?>
<!-- Generator: Adobe Illustrator 23.0.1, SVG Export Plug-In . SVG Version: 6.00 Build 0)  -->
<svg version="1.1" id="Calque_1" xmlns="http://www.w3.org/2000/svg" xmlns:xlink="http://www.w3.org/1999/xlink" x="0px" y="0px"
	 viewBox="0 0 454 454" style="enable-background:new 0 0 454 454;" xml:space="preserve">
<style type="text/css">
	.st0{fill:#FF3E64;}
	.st1{fill:#FFFFFF;}
	.st2{fill:#C4C4C4;}
	.st3{fill:#FDFDFD;}
	.st4{fill:#FB2B54;}
	.st5{fill:#CA2948;}
	.st6{fill:#FDFDFD;stroke:#EB5B5D;stroke-miterlimit:10;}
	.st7{fill:#EB5B5D;}
	.st8{fill:#EB5B5D;stroke:#FFFFFF;stroke-miterlimit:10;}
</style>
<circle class="st0" cx="227" cy="227" r="227"/>
<path class="st1" d="M150,320.5L53.5,357l29-238l65-18.5l81.5,21l84-21l59,18.5l28,238l-87-36.5L229,357L150,320.5z"/>
<path class="st2" d="M149.5,321l-2-220.5L229,121v236L149.5,321z"/>
<path class="st3" d="M73,333l23.5-203.5L148,115l81,19.5l84-19.5l50,14.5L386,333l-73-25.1L229,339l-79-33.1L73,333z"/>
<path class="st2" d="M372,119l-59-18.5v220l87,36.5L372,119z"/>
<path class="st4" d="M363,129.1L313,115v192.9l73,25.1L363,129.1z"/>
<path class="st4" d="M149.5,305.5l-2-190.5l81.5,19.5v204L149.5,305.5z"/>
<path class="st5" d="M149.5,330l-96,27l96-36.5L229,357l84-36.5l87,36.5l-87-27l-84,27L149.5,330z"/>
<path class="st6" d="M362.6,282c-6.9,0-12.6,5.6-12.6,12.6c0,3.7,2.3,9,4.5,12.6c1.5,2.3,5,7.8,8,7.8s6.7-5.5,8-7.8
	c2.3-3.7,4.5-8.9,4.5-12.6C375.2,287.7,369.6,282,362.6,282z"/>
<path class="st7" d="M362.5,299c1.9,0,3.5-1.6,3.5-3.5s-1.6-3.5-3.5-3.5s-3.5,1.6-3.5,3.5S360.6,299,362.5,299z"/>
<path class="st6" d="M165.6,130c-6.9,0-12.6,5.6-12.6,12.6c0,3.7,2.3,9,4.5,12.6c1.5,2.3,5,7.8,8,7.8s6.7-5.5,8-7.8
	c2.3-3.7,4.5-8.9,4.5-12.6C178.2,135.7,172.6,130,165.6,130z"/>
<path class="st7" d="M165.5,147c1.9,0,3.5-1.6,3.5-3.5s-1.6-3.5-3.5-3.5s-3.5,1.6-3.5,3.5S163.6,147,165.5,147z"/>
<path class="st1" d="M121.5,162c1.9,0,3.5-1.6,3.5-3.5s-1.6-3.5-3.5-3.5s-3.5,1.6-3.5,3.5S119.6,162,121.5,162z"/>
<path class="st1" d="M292.5,277c1.9,0,3.5-1.6,3.5-3.5s-1.6-3.5-3.5-3.5s-3.5,1.6-3.5,3.5S290.6,277,292.5,277z"/>
<path class="st8" d="M262.6,202c-6.9,0-12.6,5.6-12.6,12.6c0,3.7,2.3,9,4.5,12.6c1.5,2.3,5,7.8,8,7.8s6.7-5.5,8-7.8
	c2.3-3.7,4.5-8.9,4.5-12.6C275.2,207.7,269.6,202,262.6,202z"/>
<path class="st1" d="M262.5,218c1.9,0,3.5-1.6,3.5-3.5s-1.6-3.5-3.5-3.5s-3.5,1.6-3.5,3.5S260.6,218,262.5,218z"/>
<path class="st1" d="M295.5,146c1.9,0,3.5-1.6,3.5-3.5s-1.6-3.5-3.5-3.5s-3.5,1.6-3.5,3.5S293.6,146,295.5,146z"/>
<path class="st8" d="M105.6,269c-6.9,0-12.6,5.6-12.6,12.6c0,3.7,2.3,9,4.5,12.6c1.5,2.3,5,7.8,8,7.8s6.7-5.5,8-7.8
	c2.3-3.7,4.5-8.9,4.5-12.6C118.2,274.7,112.6,269,105.6,269z"/>
<path class="st1" d="M105.5,285c1.9,0,3.5-1.6,3.5-3.5s-1.6-3.5-3.5-3.5s-3.5,1.6-3.5,3.5S103.6,285,105.5,285z"/>
</svg>
