<?xml version="1.0" encoding="utf-8"?>
<!-- Generator: Adobe Illustrator 23.0.1, SVG Export Plug-In . SVG Version: 6.00 Build 0)  -->
<svg version="1.1" id="Capa_1" xmlns="http://www.w3.org/2000/svg" xmlns:xlink="http://www.w3.org/1999/xlink" x="0px" y="0px"
	 viewBox="0 0 485.2 485.2" style="enable-background:new 0 0 485.2 485.2;" xml:space="preserve">
<style type="text/css">
	.st0{fill:#2076F2;}
</style>
<g>
	<path class="st0" d="M242.6,0c-100.5,0-182,81.5-182,182c0,40.9,13.5,78.7,36.3,109.1l145.6,194.2L388.3,291
		c22.8-30.4,36.3-68.1,36.3-109.1C424.6,81.5,343.1,0,242.6,0z M242.6,303.3c-67,0-121.3-54.3-121.3-121.3
		c0-67,54.3-121.3,121.3-121.3c67,0,121.3,54.3,121.3,121.3C363.9,248.9,309.6,303.3,242.6,303.3z"/>
</g>
<circle class="st0" cx="242.6" cy="182" r="144.4"/>
</svg>
